<svg xmlns="http://www.w3.org/2000/svg" viewBox="0 0 256 256" shape-rendering="geometricPrecision">
    
    <circle cx="128" cy="128" r="120" fill="#FFD6A5" />
    <circle cx="128" cy="128" r="118" fill="none" stroke="#0E1726" stroke-width="4" />
    
      <ellipse cx="128" cy="128" rx="64" ry="58" fill="#0E1726" stroke="#0E1726" stroke-width="4"/>
    
      <circle cx="98" cy="128" r="6" fill="#0E1726" />
      <circle cx="158" cy="128" r="6" fill="#0E1726" />
    <path d="M76 170 q 6 8 0 16" fill="none" stroke="#0E1726" stroke-width="5" stroke-linecap="round"/>
<circle cx="76" cy="170" r="12" fill="#0E1726" stroke="#0E1726" stroke-width="4"/>
<path d="M96 176 q 6 8 0 16" fill="none" stroke="#0E1726" stroke-width="5" stroke-linecap="round"/>
<circle cx="96" cy="176" r="12" fill="#0E1726" stroke="#0E1726" stroke-width="4"/>
<path d="M116 170 q 6 8 0 16" fill="none" stroke="#0E1726" stroke-width="5" stroke-linecap="round"/>
<circle cx="116" cy="170" r="12" fill="#0E1726" stroke="#0E1726" stroke-width="4"/>
<path d="M136 176 q 6 8 0 16" fill="none" stroke="#0E1726" stroke-width="5" stroke-linecap="round"/>
<circle cx="136" cy="176" r="12" fill="#0E1726" stroke="#0E1726" stroke-width="4"/>
<path d="M156 170 q 6 8 0 16" fill="none" stroke="#0E1726" stroke-width="5" stroke-linecap="round"/>
<circle cx="156" cy="170" r="12" fill="#0E1726" stroke="#0E1726" stroke-width="4"/>
<path d="M176 176 q 6 8 0 16" fill="none" stroke="#0E1726" stroke-width="5" stroke-linecap="round"/>
<circle cx="176" cy="176" r="12" fill="#0E1726" stroke="#0E1726" stroke-width="4"/>
</svg>